# xmcd
#
# Track frame offsets:
#	150
#	9327
#	19329
#	33109
#	45210
#	58679
#	71480
#	86072
#	98944
#	112488
#	122924
#	136679
#	148356
#	162536
#	176732
#	188201
#	200161
#	215725
#	224134
#	235153
#	248230
#	257569
#	269619
#	281836
#
# Disc length: 3938 seconds
# Revision: 0
# Processed by: cddbd v1.5.2PL0 Copyright (c) Steve Scherf et al.
# Submitted via: dBpowerAMP V12.0
#
DISCID=810f6018
DTITLE=Willie Nelson - Make Way For Willie Nelson - My Own Peculiar Way
DYEAR=2011
DGENRE=Country
TTITLE0=Make Way For a Better Man
TTITLE1=Some Other World
TTITLE2=Have I Stayed Away Too Long
TTITLE3=Born To Lose
TTITLE4=Lovin' Lies
TTITLE5=You Made Me Live, Love and Die
TTITLE6=What Now My Love
TTITLE7=Teach Me To Forget
TTITLE8=A Mansion On the Hill
TTITLE9=If It's Wrong To Love You
TTITLE10=Have I Told You Lately That I Love You?
TTITLE11=One In a Row
TTITLE12=My Own Peculiar Way
TTITLE13=I Walk Alone
TTITLE14=Any Old Arms Won't Do
TTITLE15=I Just Don't Understand
TTITLE16=I Just Dropped By
TTITLE17=Local Memory
TTITLE18=That's All
TTITLE19=I Let My Mind Wander
TTITLE20=Natural To Be Gone
TTITLE21=Love Has a Mind of Its Own
TTITLE22=The Message
TTITLE23=It Will Come To Pass
EXTD=
EXTT0=
EXTT1=
EXTT2=
EXTT3=
EXTT4=
EXTT5=
EXTT6=
EXTT7=
EXTT8=
EXTT9=
EXTT10=
EXTT11=
EXTT12=
EXTT13=
EXTT14=
EXTT15=
EXTT16=
EXTT17=
EXTT18=
EXTT19=
EXTT20=
EXTT21=
EXTT22=
EXTT23=
PLAYORDER=
